<?xml version="1.0" encoding="UTF-8"?>
<svg id="_Слой_2" data-name="Слой 2" xmlns="http://www.w3.org/2000/svg" viewBox="0 0 412.58 247.44">
  <defs>
    <style>
      .cls-1 {
        fill: none;
        stroke: #be489a;
        stroke-miterlimit: 10;
      }

      .cls-2 {
        fill: #be489a;
      }
    </style>
  </defs>
  <g id="Layer_1" data-name="Layer 1">
    <g>
      <path class="cls-2" d="M127.71,86.55h46.39v14.45h-12.34v33.47h-21.71v-33.47h-12.34v-14.45Z"/>
      <path class="cls-2" d="M197.62,134.47h-21.71v-47.92h21.71v21.05h8.79v-21.05h21.71v47.92h-21.71v-21.13h-8.79v21.13Z"/>
      <path class="cls-2" d="M261.95,118.49c1.98,0,3.91-.24,5.77-.73,1.86-.48,3.54-1.02,5.05-1.6,1.74-.68,3.39-1.45,4.94-2.32l5.23,16.19c-3.39,1.84-7.08,3.23-11.07,4.17s-8.07,1.42-12.23,1.42c-5.18,0-9.62-.59-13.32-1.78-3.7-1.19-6.74-2.88-9.11-5.08-2.37-2.2-4.11-4.89-5.23-8.06-1.11-3.17-1.67-6.76-1.67-10.78,0-3.44,.59-6.64,1.78-9.62,1.19-2.98,2.93-5.57,5.23-7.77,2.3-2.2,5.17-3.93,8.6-5.19,3.44-1.26,7.41-1.89,11.91-1.89,3.63,0,6.92,.32,9.87,.94,2.95,.63,5.47,1.55,7.55,2.76,2.08,1.21,3.69,2.7,4.83,4.46,1.14,1.77,1.71,3.76,1.71,5.99,0,2.9-.67,5.22-2,6.93-1.33,1.72-3.04,3.05-5.12,3.99-2.08,.94-4.38,1.56-6.9,1.85-2.52,.29-4.94,.44-7.26,.44h-7.26c.24,1.84,1.02,3.24,2.32,4.21,1.31,.97,3.44,1.45,6.39,1.45Zm-2.32-18.73c-2.08,0-3.62,.76-4.61,2.29-.99,1.52-1.61,3.55-1.85,6.06h4.79c1.74,0,3.22-.33,4.43-.98,1.21-.65,1.81-1.73,1.81-3.23,0-1.26-.34-2.26-1.02-3.01-.68-.75-1.86-1.12-3.56-1.12Z"/>
    </g>
    <g>
      <path class="cls-1" d="M121.14,.5V31.09c0,9.75-2.05,16.99-6.16,21.72-4.11,4.73-10.83,7.09-20.17,7.09s-16.58-1.65-22.61-4.96l6.29-19.68c1,.83,2.04,1.57,3.1,2.22,.94,.53,2.02,1.02,3.24,1.46,1.21,.44,2.5,.67,3.86,.67,2.07,0,3.58-.61,4.52-1.82,.94-1.22,1.42-3.22,1.42-6.01v-13.71h-18.35V.5h44.86Z"/>
      <path class="cls-1" d="M185.51,.5V33.84c0,4.43-.8,8.28-2.39,11.53-1.6,3.25-3.77,5.96-6.52,8.11-2.75,2.16-6.02,3.77-9.8,4.83-3.78,1.06-7.83,1.6-12.15,1.6s-8.35-.53-12.1-1.6c-3.75-1.06-7.02-2.67-9.8-4.83-2.78-2.16-4.96-4.86-6.56-8.11-1.6-3.25-2.39-7.09-2.39-11.53V.5h26.51V35.17c0,2.48,.41,4.27,1.24,5.36,.83,1.09,1.86,1.64,3.1,1.64s2.36-.55,3.19-1.64c.83-1.09,1.24-2.88,1.24-5.36V.5h26.42Z"/>
      <path class="cls-1" d="M237.73,58.93h-49.03V.5h27.84V41.28h21.19v17.64Z"/>
      <path class="cls-1" d="M266.27,59.02h-26.51V.5h26.51V59.02Z"/>
      <path class="cls-1" d="M297.92,59.02h-29.88L281.88,.5h41.67l13.12,58.52h-29.17l-1.51-12.59h-6.56l-1.51,12.59Zm4.17-34.13l-1.86,14.72h4.96l-1.77-14.72h-1.33Z"/>
    </g>
    <g>
      <path class="cls-1" d="M99.94,225.24c0,6.46-2.54,11.57-7.6,15.33-5.07,3.76-13.29,5.64-24.65,5.64s-19.46-2.21-25.01-6.62c-5.56-4.41-8.34-10.71-8.34-18.88h-1.84v24.28H.5v-80.92H65.61c9.73,0,16.65,1.68,20.78,5.03,4.13,3.35,6.19,8.01,6.19,13.98,0,6.38-2.27,11.1-6.81,14.16-4.54,3.07-10.89,4.6-19.07,4.6v1.84c6.21,0,11.44,.55,15.69,1.66,4.25,1.1,7.66,2.62,10.24,4.54,2.58,1.92,4.43,4.21,5.58,6.87,1.14,2.66,1.72,5.5,1.72,8.52Zm-45.86-31.88c0-1.39-.41-2.59-1.23-3.62-.82-1.02-2.29-1.53-4.41-1.53h-11.28v10.67h10.3c2.7,0,4.47-.57,5.33-1.72,.86-1.14,1.29-2.41,1.29-3.8Zm-.86,29.18c2.86,0,4.94-.65,6.25-1.96s1.96-2.98,1.96-5.03c0-2.53-1.15-4.35-3.43-5.46-2.29-1.1-5.8-1.66-10.54-1.66h-10.3v4.17c.9,1.88,2.08,3.56,3.56,5.03,1.31,1.23,2.98,2.35,5.03,3.37,2.04,1.02,4.54,1.53,7.48,1.53Z"/>
      <path class="cls-1" d="M196.92,244.98h-38.5c-.33-.41-.66-1.06-.98-1.96-.25-.74-.45-1.7-.61-2.88-.17-1.18-.25-2.72-.25-4.6v-2.45c0-1.31-.14-2.51-.43-3.62-.29-1.1-.82-2.04-1.59-2.82-.78-.78-1.86-1.37-3.25-1.78-1.39-.41-3.19-.61-5.4-.61h-6.25v20.72h-36.54v-80.92h32v22.44h1.84c0-3.92,.74-7.36,2.21-10.3,1.47-2.94,3.53-5.4,6.19-7.36,2.66-1.96,5.82-3.43,9.5-4.41,3.68-.98,7.76-1.47,12.26-1.47,4.99,0,9.24,.59,12.75,1.78,3.51,1.19,6.39,2.84,8.64,4.97,2.25,2.13,3.9,4.62,4.97,7.48,1.06,2.86,1.59,6.01,1.59,9.44,0,8.17-2.82,14.33-8.46,18.45-5.64,4.13-13.85,6.19-24.64,6.19v1.84c6.7,0,12.2,.45,16.49,1.35,4.29,.9,7.66,2.15,10.12,3.74,2.45,1.59,4.15,3.48,5.09,5.64,.94,2.17,1.41,4.48,1.41,6.93v3.8c0,1.72,.08,3.13,.25,4.23,.16,1.1,.37,1.98,.61,2.64,.33,.82,.65,1.39,.98,1.72v1.84Zm-45.12-58.61c-1.96,0-3.7,.51-5.21,1.53-1.51,1.02-2.8,2.15-3.86,3.37-1.23,1.47-2.25,3.11-3.07,4.9v3.8h3.8c2.62,0,4.78-.22,6.5-.67,1.72-.45,3.06-1.06,4.05-1.84,.98-.78,1.66-1.66,2.02-2.64,.37-.98,.55-1.96,.55-2.94,0-1.96-.51-3.37-1.53-4.23-1.02-.86-2.11-1.29-3.25-1.29Z"/>
      <path class="cls-1" d="M236.16,244.98h-36.66v-80.92h36.66v80.92Z"/>
      <path class="cls-1" d="M280.42,162.22c7.03,0,13.12,1.25,18.27,3.74,5.15,2.49,9.38,5.72,12.69,9.69,3.31,3.97,5.76,8.48,7.36,13.55,1.59,5.07,2.39,10.18,2.39,15.33,0,7.03-1.06,13.18-3.19,18.45-2.13,5.27-5.11,9.67-8.95,13.18-3.84,3.52-8.48,6.15-13.92,7.91-5.44,1.76-11.51,2.64-18.21,2.64-5.23,0-10.1-.53-14.59-1.59-4.5-1.06-8.4-2.7-11.71-4.9s-5.91-5.01-7.79-8.4c-1.88-3.39-2.82-7.42-2.82-12.08,0-4.25,.65-7.97,1.96-11.16,1.31-3.19,3.13-5.82,5.46-7.91,2.33-2.08,5.11-3.64,8.34-4.66,3.23-1.02,6.8-1.53,10.73-1.53,3.02,0,5.82,.41,8.4,1.23,2.58,.82,4.78,1.94,6.62,3.37,1.84,1.43,3.27,3.15,4.29,5.15,1.02,2,1.53,4.19,1.53,6.56h1.84c.49-3.84,.25-7.11-.74-9.81-.98-2.7-2.43-4.86-4.35-6.5-1.92-1.63-4.23-2.8-6.93-3.49-2.7-.69-5.52-1.04-8.46-1.04s-5.91,.35-8.89,1.04c-2.98,.7-5.74,1.62-8.28,2.76l-8.83-24.28c2.7-1.55,5.54-2.8,8.52-3.74,2.98-.94,6.09-1.67,9.32-2.21,3.23-.53,6.52-.88,9.87-1.04,3.35-.16,6.7-.25,10.05-.25Zm-.12,65.23c.65,0,1.18-.41,1.59-1.23,.41-.82,.71-1.84,.92-3.06,.2-1.23,.31-2.58,.31-4.05s-.1-2.82-.31-4.05c-.2-1.23-.53-2.25-.98-3.06-.45-.82-.96-1.23-1.53-1.23-.9,0-1.62,.41-2.15,1.23-.53,.82-.94,1.84-1.23,3.06-.29,1.23-.43,2.58-.43,4.05s.14,2.82,.43,4.05c.29,1.23,.71,2.25,1.29,3.06,.57,.82,1.27,1.23,2.08,1.23Z"/>
      <path class="cls-1" d="M376.55,218c3.35,0,6.6-.41,9.75-1.23,3.15-.82,5.99-1.72,8.52-2.7,2.94-1.14,5.72-2.45,8.34-3.92l8.83,27.34c-5.72,3.11-11.96,5.46-18.7,7.05-6.74,1.59-13.63,2.39-20.66,2.39-8.75,0-16.25-1-22.5-3-6.25-2-11.38-4.86-15.39-8.58-4.01-3.72-6.95-8.26-8.83-13.61-1.88-5.35-2.82-11.42-2.82-18.21,0-5.8,1-11.22,3-16.25,2-5.03,4.94-9.4,8.83-13.12,3.88-3.72,8.72-6.64,14.53-8.77,5.8-2.12,12.51-3.19,20.11-3.19,6.13,0,11.69,.53,16.67,1.59,4.99,1.06,9.24,2.62,12.75,4.66,3.51,2.04,6.23,4.56,8.15,7.54,1.92,2.98,2.88,6.36,2.88,10.12,0,4.9-1.12,8.81-3.37,11.71-2.25,2.9-5.13,5.15-8.64,6.74-3.51,1.59-7.4,2.64-11.65,3.13-4.25,.49-8.34,.74-12.26,.74h-12.26c.41,3.11,1.72,5.48,3.92,7.11,2.21,1.64,5.8,2.45,10.79,2.45Zm-3.92-31.63c-3.52,0-6.11,1.29-7.79,3.86-1.68,2.57-2.72,5.99-3.13,10.24h8.09c2.94,0,5.43-.55,7.48-1.66,2.04-1.1,3.07-2.92,3.07-5.46,0-2.12-.57-3.82-1.72-5.09-1.15-1.27-3.15-1.9-6.01-1.9Z"/>
    </g>
  </g>
</svg>